<?xml version="1.0" standalone="no"?><!DOCTYPE svg PUBLIC "-//W3C//DTD SVG 1.1//EN" "http://www.w3.org/Graphics/SVG/1.1/DTD/svg11.dtd"><svg t="1588821828963" class="icon" viewBox="0 0 1024 1024" version="1.1" xmlns="http://www.w3.org/2000/svg" p-id="1454" xmlns:xlink="http://www.w3.org/1999/xlink" width="200" height="200"><defs><style type="text/css"></style></defs><path d="M131.75 867.5h301.5v45H131.75z" fill="" p-id="1455"></path><path d="M545.75 867.5h330.75v45H545.75z" fill="" p-id="1456"></path><path d="M615.5 201.5l189 189L390.5 804.5l-189-189L615.5 201.5z m0 0" fill="" p-id="1457"></path><path d="M692 127.25l189 189-56.25 56.25-189-189L692 127.25z m0 0" fill="" p-id="1458"></path><path d="M183.5 635.75l189 189L107 899l76.5-263.25z m0 0" fill="" p-id="1459"></path><path d="M764 125L881 242c20.25 20.25 18 51.75-2.25 72-20.25 20.25-54 22.5-72 2.25l-117-117c-20.25-18-20.25-51.75 2.25-72 20.25-20.25 51.75-22.5 72-2.25z m0 0" fill="" p-id="1460"></path></svg>