<?xml version="1.0" standalone="no"?><!DOCTYPE svg PUBLIC "-//W3C//DTD SVG 1.1//EN" "http://www.w3.org/Graphics/SVG/1.1/DTD/svg11.dtd"><svg t="1586327520391" class="icon" viewBox="0 0 1024 1024" version="1.1" xmlns="http://www.w3.org/2000/svg" p-id="1098" xmlns:xlink="http://www.w3.org/1999/xlink" width="200" height="200"><defs><style type="text/css"></style></defs><path d="M811.66249971 62H212.33750029A113.175 113.175 0 0 0 99.50000029 174.8375v674.325A113.175 113.175 0 0 0 212.33750029 962h599.32499942A113.175 113.175 0 0 0 924.49999971 849.1625V174.8375A113.175 113.175 0 0 0 811.66249971 62z m6.975 511.16249971c-23.32500029 123.00000029-122.5125 222.1875-245.51249942 245.475a312.975 312.975 0 0 1-367.80000029-367.79999942c23.32500029-123.00000029 122.5125-222.1875 245.475-245.475a312.975 312.975 0 0 1 367.83749971 367.79999942z" p-id="1099"></path><path d="M623.86250029 492.9875c-9.45-52.57500029-56.25-90.71250029-111.30000029-90.71250029-2.85000029 0-5.7375 0.1125-8.62499971 0.3375L319.175 291.57499971l83.7 192.11250058 0.29999971-0.225c-4.20000029 15.14999971-4.98750029 31.12499971-2.1375 47.06249942 9.45 52.5375 56.25 90.71250029 111.30000029 90.71250029 2.32499971 0 4.68749971-0.1125 7.01250029-0.225l185.43749942 111.4875-83.39999942-191.51250029a105.37499971 105.37499971 0 0 0 2.475-47.99999971zM512 562.85c-29.025 0-52.5375-22.76250029-52.5375-50.85 0-28.08749971 23.5125-50.85 52.5375-50.85s52.5375 22.76250029 52.5375 50.85c0 28.08749971-23.5125 50.85-52.5375 50.85z" p-id="1100"></path></svg>