<?xml version="1.0" standalone="no"?><!DOCTYPE svg PUBLIC "-//W3C//DTD SVG 1.1//EN" "http://www.w3.org/Graphics/SVG/1.1/DTD/svg11.dtd"><svg t="1590118572612" class="icon" viewBox="0 0 1024 1024" version="1.1" xmlns="http://www.w3.org/2000/svg" p-id="1058" xmlns:xlink="http://www.w3.org/1999/xlink" width="200" height="200"><defs><style type="text/css"></style></defs><path d="M256 853.333333h512V426.666667H256v426.666666z m256-298.666666c46.933333 0 85.333333 38.4 85.333333 85.333333s-38.4 85.333333-85.333333 85.333333-85.333333-38.4-85.333333-85.333333 38.4-85.333333 85.333333-85.333333z" opacity=".3" p-id="1059"></path><path d="M768 341.333333h-42.666667V256c0-117.76-95.573333-213.333333-213.333333-213.333333S298.666667 138.24 298.666667 256v85.333333H256c-46.933333 0-85.333333 38.4-85.333333 85.333334v426.666666c0 46.933333 38.4 85.333333 85.333333 85.333334h512c46.933333 0 85.333333-38.4 85.333333-85.333334V426.666667c0-46.933333-38.4-85.333333-85.333333-85.333334zM384 256c0-70.826667 57.173333-128 128-128s128 57.173333 128 128v85.333333H384V256z m384 597.333333H256V426.666667h512v426.666666z m-256-128c46.933333 0 85.333333-38.4 85.333333-85.333333s-38.4-85.333333-85.333333-85.333333-85.333333 38.4-85.333333 85.333333 38.4 85.333333 85.333333 85.333333z" p-id="1060"></path></svg>