<?xml version="1.0" standalone="no"?><!DOCTYPE svg PUBLIC "-//W3C//DTD SVG 1.1//EN" "http://www.w3.org/Graphics/SVG/1.1/DTD/svg11.dtd"><svg t="1588820826047" class="icon" viewBox="0 0 1024 1024" version="1.1" xmlns="http://www.w3.org/2000/svg" p-id="1674" xmlns:xlink="http://www.w3.org/1999/xlink" width="200" height="200"><defs><style type="text/css"></style></defs><path d="M652.176875 364.2040625l57.4078125-57.4078125 32.150625 32.1515625-57.406875 57.4078125zM508.34375 711.21875h45.46875v81.28125h-45.46875zM652.14875 670.638125l32.1515625-32.1515625 57.406875 57.4078125-32.150625 32.1515625zM817.15625 540.125v-45.46875h-81.28125V540.125h81.28125zM573.96875 544.0625V315.03125h-52.5V522.3125L411.125 632.75l37.125 37.03125z" p-id="1675"></path><path d="M551 131.46875v52.5c180.84375 0 328.03125 147.1875 328.03125 328.03125 0 180.84375-147.1875 328.03125-328.03125 328.03125-162.9375 0-298.40625-119.34375-323.71875-275.34375l50.71875 50.71875 37.125-37.125-74.15625-74.15625-37.125-37.125-37.125 37.125-74.34375 74.15625 37.125 37.125 45.375-45.375c28.03125 182.34375 186 322.5 376.03125 322.5 209.8125 0 380.53125-170.71875 380.53125-380.53125s-170.625-380.53125-380.4375-380.53125z" p-id="1676"></path></svg>