<?xml version="1.0" standalone="no"?><!DOCTYPE svg PUBLIC "-//W3C//DTD SVG 1.1//EN" "http://www.w3.org/Graphics/SVG/1.1/DTD/svg11.dtd"><svg t="1586588259210" class="icon" viewBox="0 0 1024 1024" version="1.1" xmlns="http://www.w3.org/2000/svg" p-id="12012" xmlns:xlink="http://www.w3.org/1999/xlink" width="200" height="200"><defs><style type="text/css"></style></defs><path d="M266.884732 0.06128A68.809964 68.809964 0 0 0 196.352517 67.10894v5.76754L195.992046 951.425114a64.364151 64.364151 0 0 0 55.592683 72.094258 65.36546 65.36546 0 0 0 11.535081 0.440576H760.289821a66.406822 66.406822 0 0 0 68.089021-64.564413V72.836428A69.210487 69.210487 0 0 0 762.973329 0.06128h-6.087959M441.152574 35.427519h140.744012v35.246081H441.152574z m-52.789018 0a17.623041 17.623041 0 1 1-17.582988 17.663093 17.542936 17.542936 0 0 1 17.582988-17.582989zM511.604685 953.267523a35.406291 35.406291 0 0 1-35.286134-35.566501 34.605244 34.605244 0 0 1 1.842408-11.054452 33.924353 33.924353 0 0 1 21.868592-22.148958 35.326186 35.326186 0 0 1 22.749743 66.88745 36.768071 36.768071 0 0 1-11.174609 1.882461z m247.803984-141.22464H264.000962V105.959734h495.688073v706.043096z" fill="#26B0FE" p-id="12013"></path></svg>