<?xml version="1.0" standalone="no"?><!DOCTYPE svg PUBLIC "-//W3C//DTD SVG 1.1//EN" "http://www.w3.org/Graphics/SVG/1.1/DTD/svg11.dtd"><svg t="1586432791772" class="icon" viewBox="0 0 1024 1024" version="1.1" xmlns="http://www.w3.org/2000/svg" p-id="1062" xmlns:xlink="http://www.w3.org/1999/xlink" width="200" height="200"><defs><style type="text/css"></style></defs><path d="M182.66428584 801.09285752a31.88571416 31.88571416 0 0 1-25.26428584-12.34285752 448.45714248 448.45714248 0 0 1-95.14285752-276.87857168A448.58571416 448.58571416 0 0 1 193.78571416 193.72142832 447.94285752 447.94285752 0 0 1 511.42142832 62a32.14285752 32.14285752 0 0 1 25.00714336 52.2l-128.25 160.71428584a32.14285752 32.14285752 0 1 1-50.14285752-40.17857168L439.35714248 132.97142833a382.24285752 382.24285752 0 0 0-200.18571415 106.26428583 382.88571416 382.88571416 0 0 0-112.82142833 272.63571416 384.62142833 384.62142833 0 0 0 81.45 237.21428584 32.14285752 32.14285752 0 0 1-25.2 52.00714336M511.48571416 961.74285752a32.14285752 32.14285752 0 0 1-24.94285664-52.2l128.31428496-160.71428584a32.14285752 32.14285752 0 1 1 50.14285752 40.1785708l-81.32142832 101.76428584a382.24285752 382.24285752 0 0 0 200.18571416-106.26428584 383.20714248 383.20714248 0 0 0 112.69285664-272.63571415 384.62142833 384.62142833 0 0 0-81.38571416-237.21428585 32.14285752 32.14285752 0 0 1 50.52857168-39.53571416 447.62142832 447.62142832 0 0 1 95.07857168 276.75 448.58571416 448.58571416 0 0 1-131.59285752 318.15 447.94285752 447.94285752 0 0 1-317.7 131.78571416" p-id="1063"></path><path d="M349.67857168 770.36428584a31.62857168 31.62857168 0 0 1-22.69285752-9.45l-64.15714248-64.28571416a32.20714248 32.20714248 0 0 1 0-45.45l151.00714248-151.26428584V449c0-59.01428584 19.28571416-106.07142832 57.34285752-139.88571416 75.72857168-67.24285752 198-53.35714248 203.14285664-52.71428584a32.01428584 32.01428584 0 0 1 18.9 54.64285752L621.02857168 383.36428584l18.70714248 18.77142832 72.19285752-72.32142832a32.01428584 32.01428584 0 0 1 54.5785708 18.9c0.64285752 5.14285752 14.46428584 127.60714248-52.65 203.4-33.68571416 38.05714248-80.74285752 57.47142832-139.69285664 57.47142832h-50.78571416l-150.94285752 151.32857168a32.46428584 32.46428584 0 0 1-22.75714248 9.45z m-18.7714292-96.42857168l18.7714292 18.77142832 137.76428584-137.95714248a32.01428584 32.01428584 0 0 1 22.6285708-9.45h64.2214292c40.30714248 0 70.26428584-11.76428584 91.60714248-35.74285752 19.28571416-21.66428584 28.8-50.91428584 33.49285752-76.1785708l-36.9 36.9a32.14285752 32.14285752 0 0 1-45.38571504 0l-64.22142832-64.28571416a32.20714248 32.20714248 0 0 1 0-45.45l37.02857168-37.02857168c-26.55 4.88571416-54.96428584 14.65714248-76.30714336 33.68571416-23.97857167 21.40714248-35.61428584 51.36428584-35.61428496 91.60714248v64.28571504a32.14285752 32.14285752 0 0 1-9.38571504 22.69285664L330.90714248 674z" p-id="1064"></path></svg>