<?xml version="1.0" standalone="no"?><!DOCTYPE svg PUBLIC "-//W3C//DTD SVG 1.1//EN" "http://www.w3.org/Graphics/SVG/1.1/DTD/svg11.dtd"><svg t="1586328257021" class="icon" viewBox="0 0 1024 1024" version="1.1" xmlns="http://www.w3.org/2000/svg" p-id="1031" xmlns:xlink="http://www.w3.org/1999/xlink" width="200" height="200"><defs><style type="text/css"></style></defs><path d="M918.08 634.4l-22.08-21.12a44.64 44.64 0 0 0-62.88 2.4l-25.44 27.36 91.68 77.76 22.08-24a44.64 44.64 0 0 0-3.36-62.4zM612.32 855.2a154.56 154.56 0 0 0-25.92 88.8 27.36 27.36 0 0 0 24.48 23.52h3.36a156 156 0 0 0 85.92-30.24l151.2-164.64-91.68-77.76zM823.04 456.8V176A113.28 113.28 0 0 0 713.12 57.44H201.44A113.28 113.28 0 0 0 91.52 176v591.36a113.28 113.28 0 0 0 109.92 116.16h229.92a96 96 0 0 0 72-32.64l291.36-321.12a108.96 108.96 0 0 0 28.32-72.96z m-403.2 253.92H217.76a34.08 34.08 0 1 1 0-68.64h202.08a34.08 34.08 0 0 1 0 68.64z m136.8-204.96H217.76a34.08 34.08 0 1 1 0-68.64h338.88a34.08 34.08 0 1 1 0 68.64z m139.68-205.44h-480a34.08 34.08 0 0 1 0-68.16h480a34.08 34.08 0 0 1 0 68.16z" p-id="1032"></path></svg>