<?xml version="1.0" standalone="no"?><!DOCTYPE svg PUBLIC "-//W3C//DTD SVG 1.1//EN" "http://www.w3.org/Graphics/SVG/1.1/DTD/svg11.dtd"><svg t="1585904883555" class="icon" viewBox="0 0 1024 1024" version="1.1" xmlns="http://www.w3.org/2000/svg" p-id="818" xmlns:xlink="http://www.w3.org/1999/xlink" width="200" height="200"><defs><style type="text/css"></style></defs><path d="M921.6 411.8755552h-86.47111147c-13.65333333 0-22.7555552-9.10222187-31.85777706-18.20444373s-4.55111147-27.30666667 9.10222186-36.4088896l59.1644448-59.16444374c9.10222187-9.10222187 13.65333333-22.7555552 13.65333334-31.85777813 0-13.65333333-4.55111147-22.7555552-13.65333334-31.85777813l-77.3688896-77.36888854c-18.2044448-18.2044448-50.06222187-18.2044448-68.26666666 0l-59.16444374 59.1644448c-9.10222187 9.10222187-18.2044448 9.10222187-22.75555626 9.10222187-9.10222187 0-18.2044448-4.55111147-22.7555552-9.10222187-4.55111147-4.55111147-9.10222187-13.65333333-9.10222187-22.75555626V102.4c0-27.30666667-22.7555552-45.51111147-45.51111147-45.51111147h-109.22666666c-27.30666667 0-45.51111147 22.7555552-45.51111147 45.51111147v86.47111147c0 22.7555552-18.2044448 31.85777813-31.85777707 31.85777706-4.55111147 0-13.65333333 0-22.75555626-9.10222186l-59.16444374-59.1644448c-18.2044448-18.2044448-50.06222187-18.2044448-68.26666666 0l-77.3688896 77.3688896c-9.10222187 9.10222187-13.65333333 22.7555552-13.65333334 31.85777706 0 13.65333333 4.55111147 22.7555552 13.65333334 31.85777814l59.1644448 59.1644448c9.10222187 9.10222187 13.65333333 22.7555552 9.10222186 36.40888853s-18.2044448 18.2044448-31.85777706 18.2044448H102.4c-27.30666667 0-45.51111147 22.7555552-45.51111147 45.5111104v109.22666667c0 27.30666667 22.7555552 45.51111147 45.51111147 45.51111146h86.47111147c13.65333333 0 22.7555552 9.10222187 31.85777706 18.2044448 4.55111147 13.65333333 4.55111147 27.30666667-9.10222186 36.40888854l-59.1644448 59.1644448c-9.10222187 9.10222187-13.65333333 22.7555552-13.65333334 31.85777706 0 13.65333333 4.55111147 22.7555552 13.65333334 31.85777814l77.3688896 77.36888853c18.2044448 18.2044448 50.06222187 18.2044448 68.26666666 0l59.16444374-59.16444373c9.10222187-9.10222187 18.2044448-9.10222187 22.75555626-9.10222294 18.2044448 0 31.85777813 13.65333333 31.85777707 31.85777814V921.6c0 27.30666667 22.7555552 45.51111147 45.51111147 45.51111147h109.22666666c27.30666667 0 45.51111147-22.7555552 45.51111147-45.51111147v-86.47111147c0-22.7555552 18.2044448-31.85777813 31.85777707-31.85777706 4.55111147 0 13.65333333 0 22.75555626 9.10222186l59.16444374 59.1644448c18.2044448 18.2044448 50.06222187 18.2044448 68.26666666 0l77.3688896-77.3688896c9.10222187-9.10222187 13.65333333-22.7555552 13.65333334-31.85777706 0-13.65333333-4.55111147-22.7555552-13.65333334-31.85777814l-59.1644448-59.1644448c-9.10222187-9.10222187-13.65333333-22.7555552-9.10222186-36.40888853 4.55111147-13.65333333 18.2044448-18.2044448 31.85777706-18.2044448H921.6c27.30666667 0 45.51111147-22.7555552 45.51111147-45.5111104v-109.22666667c0-31.85777813-22.7555552-50.06222187-45.51111147-50.06222293zM630.32888853 512c0 63.7155552-54.61333333 118.32888853-118.32888853 118.32888853s-118.32888853-54.61333333-118.32888853-118.32888853 54.61333333-118.32888853 118.32888853-118.32888853 118.32888853 54.61333333 118.32888853 118.32888853z" fill="" p-id="819"></path></svg>