<?xml version="1.0" standalone="no"?><!DOCTYPE svg PUBLIC "-//W3C//DTD SVG 1.1//EN" "http://www.w3.org/Graphics/SVG/1.1/DTD/svg11.dtd"><svg t="1586588356565" class="icon" viewBox="0 0 1024 1024" version="1.1" xmlns="http://www.w3.org/2000/svg" p-id="12261" xmlns:xlink="http://www.w3.org/1999/xlink" width="200" height="200"><defs><style type="text/css"></style></defs><path d="M897.219048 794.819048L682.666667 707.047619s-39.009524-14.628571-58.514286-34.133333c-9.752381-9.752381-9.752381-34.133333 0-68.266667s121.904762-160.914286 121.904762-277.942857C746.057143 146.285714 633.904762 0 492.495238 0S238.933333 146.285714 238.933333 326.704762c0 112.152381 97.52381 248.685714 112.152381 273.066667 9.752381 24.380952 9.752381 63.390476 0 73.142857-14.628571 14.628571-68.266667 34.133333-68.266666 34.133333l-195.047619 92.647619c-43.885714 14.628571-82.895238 63.390476-82.895239 112.152381v24.380952c0 53.638095 43.885714 87.771429 97.52381 87.771429h785.066667c53.638095 0 97.52381-34.133333 97.523809-87.771429v-24.380952c-9.752381-53.638095-43.885714-97.52381-87.771428-117.028571z" p-id="12262"></path></svg>