<?xml version="1.0" standalone="no"?><!DOCTYPE svg PUBLIC "-//W3C//DTD SVG 1.1//EN" "http://www.w3.org/Graphics/SVG/1.1/DTD/svg11.dtd"><svg t="1586327825328" class="icon" viewBox="0 0 1024 1024" version="1.1" xmlns="http://www.w3.org/2000/svg" p-id="971" xmlns:xlink="http://www.w3.org/1999/xlink" width="200" height="200"><defs><style type="text/css"></style></defs><path d="M517.4 596.15c-12.15 0-22.95-6.75-28.35-17.55L372.5 345.05c-7.65-15.75-1.35-34.65 14.4-42.75 15.75-7.65 34.65-1.35 42.75 14.4l88.2 176.4 88.2-176.4c7.65-15.75 27-22.05 42.75-14.4s22.05 27 14.4 42.75L546.65 578.6c-6.3 10.35-17.55 17.55-29.25 17.55z" p-id="972"></path><path d="M868.4 962H177.2c-20.25 0-36.45-16.2-36.45-36.45V98.45C140.75 78.2 156.95 62 177.2 62h691.2c20.25 0 36.45 16.2 36.45 36.45v827.1c0 20.25-16.2 36.45-36.45 36.45z m-654.75-72.9H831.5V134.9H213.65v754.2z" p-id="973"></path><path d="M665.9 738.8h-297c-17.55 0-31.95-14.4-31.95-31.95s14.4-31.95 31.95-31.95h297c17.55 0 31.95 14.4 31.95 31.95s-14.4 31.95-31.95 31.95z" p-id="974"></path></svg>