<?xml version="1.0" standalone="no"?><!DOCTYPE svg PUBLIC "-//W3C//DTD SVG 1.1//EN" "http://www.w3.org/Graphics/SVG/1.1/DTD/svg11.dtd"><svg t="1588821814875" class="icon" viewBox="0 0 1024 1024" version="1.1" xmlns="http://www.w3.org/2000/svg" p-id="1170" xmlns:xlink="http://www.w3.org/1999/xlink" width="200" height="200"><defs><style type="text/css"></style></defs><path d="M142.859375 171.8h738.28125c14.596875 0 26.325 11.8125 26.325 26.325v632.8125c0 14.596875-11.8125 26.325-26.325 26.325h-738.28125c-14.596875 0-26.325-11.8125-26.325-26.325V198.125c-0.084375-14.596875 11.728125-26.325 26.325-26.325z" fill="#F0EEE2" p-id="1171"></path><path d="M221.91875 751.79375h316.40625V382.7375h-316.40625v369.05625z m421.875-369.05625v263.671875h158.203125V382.7375H643.79375z" fill="#BBAA9C" p-id="1172"></path><path d="M854.73125 395.9h-105.46875c-7.25625 0-13.1625 5.90625-13.1625 13.1625s5.90625 13.1625 13.1625 13.1625h105.46875c7.25625 0 13.1625-5.90625 13.1625-13.1625s-5.821875-13.1625-13.1625-13.1625zM156.021875 409.0625H116.45c-7.25625 0.16875-12.99375 6.24375-12.825 13.5 0.16875 7.003125 5.821875 12.65625 12.825 12.825h39.571875c7.25625-0.16875 12.99375-6.24375 12.825-13.5-0.16875-7.003125-5.7375-12.65625-12.825-12.825z m92.30625 276.834375h-65.896875c-7.25625 0-13.1625 5.90625-13.1625 13.1625s5.90625 13.1625 13.1625 13.1625h65.896875c7.25625 0 13.1625-5.90625 13.1625-13.1625s-5.90625-13.1625-13.1625-13.1625z m382.303125-355.978125c0-7.25625-5.90625-13.1625-13.1625-13.1625h-13.1625c-7.25625 0-13.1625 5.90625-13.1625 13.1625s5.90625 13.1625 13.1625 13.1625H617.46875c7.25625 0.084375 13.1625-5.821875 13.1625-13.1625 0 0.084375 0 0.084375 0 0zM472.428125 488.20625c0-7.25625-5.90625-13.1625-13.1625-13.1625h-79.14375c-7.25625 0.16875-12.99375 6.24375-12.825 13.5 0.16875 7.003125 5.821875 12.65625 12.825 12.825h79.14375c7.25625 0 13.1625-5.90625 13.1625-13.1625z m329.653125 250.425h-26.325c-7.25625 0-13.1625 5.90625-13.1625 13.1625s5.90625 13.1625 13.1625 13.1625h26.325c7.25625 0 13.1625-5.90625 13.1625-13.1625s-5.90625-13.1625-13.1625-13.1625zM498.8375 646.325h-52.734375c-7.25625 0.16875-12.99375 6.24375-12.825 13.5 0.16875 7.003125 5.821875 12.65625 12.825 12.825h52.734375c7.25625-0.16875 12.99375-6.24375 12.825-13.5-0.16875-6.91875-5.821875-12.571875-12.825-12.825z m171.365625-52.65h-39.571875c-7.25625 0.16875-12.99375 6.24375-12.825 13.5 0.16875 7.003125 5.821875 12.65625 12.825 12.825h39.571875c7.25625-0.16875 12.99375-6.24375 12.825-13.5-0.16875-7.003125-5.821875-12.65625-12.825-12.825z m-342.73125-52.81875c-7.25625 0-13.1625 5.90625-13.1625 13.1625s5.90625 13.1625 13.1625 13.1625 13.1625-5.90625 13.1625-13.1625-5.90625-13.1625-13.1625-13.1625z" fill="#D8D5BA" p-id="1173"></path><path d="M828.40625 356.328125H617.46875v316.40625h210.9375v-316.40625z m-26.325 289.996875H643.79375V382.7375h158.203125v263.5875zM287.9 250.859375c7.25625 0 13.1625-5.90625 13.1625-13.1625s-5.90625-13.1625-13.1625-13.1625-13.1625 5.90625-13.1625 13.1625 5.90625 13.1625 13.1625 13.1625z m593.240625-105.46875h-738.28125C113.75 145.390625 90.125 169.015625 90.125 198.125v632.8125c0 29.109375 23.625 52.734375 52.734375 52.734375h738.28125c29.109375 0 52.734375-23.625 52.734375-52.734375V198.125c0-29.109375-23.625-52.734375-52.734375-52.734375z m0 685.546875h-738.28125V303.59375h738.28125v527.34375z m0-553.66875h-738.28125V198.125h738.28125v79.14375z m-316.40625 79.059375H195.59375v421.875h369.140625v-421.875z m-26.409375 395.465625h-316.40625V382.7375h316.40625v369.05625zM235.165625 250.859375c7.25625 0 13.1625-5.90625 13.1625-13.1625s-5.90625-13.1625-13.1625-13.1625-13.1625 5.90625-13.1625 13.1625 5.90625 13.1625 13.1625 13.1625z m-52.734375 0c7.25625 0 13.1625-5.90625 13.1625-13.1625s-5.90625-13.1625-13.1625-13.1625-13.1625 5.90625-13.1625 13.1625 5.90625 13.1625 13.1625 13.1625z m184.528125 0h395.55c7.25625-0.16875 12.99375-6.24375 12.825-13.5-0.16875-7.003125-5.821875-12.65625-12.825-12.825H366.959375c-7.25625 0.16875-12.99375 6.24375-12.825 13.5 0.16875 7.003125 5.821875 12.65625 12.825 12.825z m448.284375 0h26.325c7.25625-0.16875 12.99375-6.24375 12.825-13.5-0.16875-7.003125-5.821875-12.65625-12.825-12.825h-26.325c-7.25625 0.16875-12.99375 6.24375-12.825 13.5 0.16875 7.003125 5.821875 12.65625 12.825 12.825z" fill="#5F4E56" p-id="1174"></path></svg>